<svg width="70" height="25" viewBox="0 0 70 25" fill="none" xmlns="http://www.w3.org/2000/svg">
<g clip-path="url(#clip0_53_1649)">
<path d="M19.6633 19.7659C20.0476 19.767 20.3654 19.8981 20.6198 20.156C20.8805 20.4138 21.0056 20.7348 21.0045 21.1157C21.0034 21.4966 20.8764 21.8105 20.6142 22.0732C20.3583 22.3296 20.0398 22.4588 19.6555 22.4577L18.827 22.4553L18.8229 23.8583L18.1551 23.8564L18.167 19.7647L19.6633 19.7691L19.6633 19.7659ZM19.6573 21.8229C20.0511 21.824 20.3355 21.5264 20.3367 21.1106C20.3379 20.6948 20.0552 20.3956 19.6615 20.3944L18.833 20.392L18.8288 21.8173L19.6573 21.8197L19.6573 21.8229Z" fill="#103559"/>
<path d="M22.0049 22.6961C22.1002 23.1064 22.4759 23.333 22.9854 23.3344C23.3351 23.3355 23.5985 23.222 23.779 23.0029L24.3244 23.2856C24.0235 23.6772 23.5733 23.8721 22.9805 23.8704C22.4843 23.8689 22.0784 23.733 21.7728 23.4686C21.4672 23.1982 21.315 22.8581 21.3162 22.4481C21.3174 22.0381 21.4715 21.7105 21.772 21.442C22.0726 21.1675 22.4659 21.034 22.9388 21.0353C23.3851 21.0366 23.7543 21.1783 24.0399 21.4544C24.3289 21.7305 24.4744 22.0707 24.4733 22.4631C24.4731 22.5217 24.4662 22.6037 24.4493 22.7061L22.0082 22.699L22.0049 22.6961ZM23.8046 22.2269C23.7126 21.7902 23.3636 21.5608 22.9306 21.5595C22.4411 21.5581 22.0973 21.8119 22.0029 22.2216L23.8046 22.2269Z" fill="#103559"/>
<path d="M26.3706 21.5296L25.6459 21.5275L25.6418 22.9345C25.6407 23.3101 25.8855 23.3045 26.3655 23.2836L26.3638 23.8534C25.3973 23.9684 25.0071 23.703 25.0094 22.9359L25.0134 21.5289L24.4763 21.5273L24.4781 20.9161L25.0152 20.9177L25.0171 20.2842L25.6501 20.0983L25.6477 20.9195L26.3723 20.9216L26.3706 21.5328L26.3706 21.5296Z" fill="#103559"/>
<path d="M27.9258 22.2137C28.3525 22.3058 28.9052 22.4804 28.8915 23.0579C28.8907 23.3158 28.7849 23.5208 28.58 23.6667C28.3751 23.8127 28.1194 23.8853 27.8097 23.8844C27.2625 23.8828 26.8573 23.6442 26.6811 23.2508L27.1961 22.9621C27.2885 23.2203 27.4926 23.3528 27.8082 23.3538C28.1239 23.3547 28.2806 23.2525 28.2811 23.0532C28.2816 22.8802 28.0504 22.7769 27.756 22.7057C27.3414 22.6019 26.7827 22.439 26.7963 21.8703C26.7971 21.6211 26.8909 21.4221 27.0867 21.2731C27.2796 21.1212 27.5263 21.0487 27.8119 21.0495C28.2719 21.0508 28.6411 21.263 28.8355 21.6153L28.3296 21.8894C28.237 21.684 28.0599 21.5808 27.8104 21.5801C27.5849 21.5795 27.4072 21.6757 27.4067 21.8662C27.4062 22.0451 27.6374 22.1366 27.9258 22.2195L27.9258 22.2137Z" fill="#103559"/>
<path d="M32.6874 20.4058C32.1901 20.3639 31.9477 20.5532 31.9465 20.9707L31.9463 21.0268L32.6856 21.029L32.6839 21.6272L31.9446 21.625L31.938 23.8964L31.26 23.8944L31.2666 21.6231L30.7896 21.6217L30.7914 21.0235L31.2683 21.0248L31.2685 20.9688C31.2708 20.1836 31.7626 19.7551 32.6892 19.8076L32.6874 20.4058Z" fill="#103559"/>
<path d="M33.4561 23.4908C33.1516 23.2146 32.9967 22.8803 32.9978 22.482C32.999 22.0837 33.1559 21.7503 33.462 21.4759C33.7681 21.2015 34.1453 21.0679 34.5805 21.0691C35.0157 21.0704 35.3921 21.2062 35.6966 21.4824C36.0012 21.7586 36.1561 22.0929 36.1549 22.4912C36.1538 22.8894 35.9969 23.2229 35.6908 23.4973C35.3847 23.7717 35.014 23.9053 34.5723 23.904C34.1305 23.9027 33.7606 23.7669 33.4561 23.4908ZM34.5739 23.3388C34.837 23.3396 35.0581 23.2582 35.2372 23.0976C35.4163 22.9371 35.5079 22.7324 35.5086 22.4893C35.5093 22.2462 35.4189 22.0409 35.2408 21.8794C35.0626 21.7178 34.842 21.6351 34.5789 21.6344C34.3158 21.6336 34.0947 21.7149 33.9156 21.8755C33.7364 22.0361 33.6449 22.2408 33.6442 22.4839C33.6435 22.7269 33.7338 22.9322 33.912 23.0938C34.0902 23.2554 34.3108 23.338 34.5739 23.3388Z" fill="#103559"/>
<path d="M37.1235 21.5939C37.2879 21.2495 37.6021 21.0779 38.0532 21.0792L38.0513 21.7297C37.8062 21.7108 37.5871 21.7677 37.4004 21.8942C37.2138 22.0177 37.1217 22.2232 37.1208 22.5076L37.1168 23.9114L36.4664 23.9095L36.4745 21.123L37.1248 21.1249L37.1235 21.5939Z" fill="#103559"/>
<path d="M42.7841 22.7588C42.7831 23.0924 42.6703 23.3716 42.4427 23.5933C42.2151 23.815 41.9394 23.9254 41.6126 23.9245L39.9393 23.9196L39.9512 19.8248L41.5005 19.8293C41.8182 19.8302 42.0902 19.9422 42.3075 20.1588C42.5307 20.3755 42.6389 20.6458 42.638 20.9667C42.6369 21.3225 42.503 21.5985 42.2391 21.801C42.5775 21.9894 42.7823 22.3299 42.781 22.7556L42.7841 22.7588ZM40.5908 20.4588L40.5877 21.5357L41.4955 21.5384C41.7799 21.5392 41.9985 21.3047 41.9994 21.003C42.0003 20.7012 41.7831 20.4654 41.4986 20.4646L40.5908 20.462L40.5908 20.4588ZM41.6145 23.2923C41.911 23.2932 42.1448 23.0429 42.1457 22.722C42.1466 22.4012 41.9143 22.1495 41.6178 22.1487L40.5859 22.1457L40.5826 23.2925L41.6145 23.2955L41.6145 23.2923Z" fill="#103559"/>
<path d="M44.1037 22.7602C44.199 23.1705 44.5743 23.3971 45.0833 23.3986C45.4326 23.3996 45.6957 23.2862 45.876 23.067L46.4208 23.3498C46.1202 23.7413 45.6706 23.9362 45.0784 23.9345C44.5827 23.9331 44.1772 23.7972 43.8719 23.5327C43.5667 23.2624 43.4146 22.9222 43.4158 22.5122C43.417 22.1022 43.571 21.7747 43.8712 21.5061C44.1714 21.2317 44.5643 21.0981 45.0367 21.0995C45.4825 21.1008 45.8514 21.2424 46.14 21.5186C46.4286 21.7947 46.574 22.1348 46.5729 22.5273C46.5727 22.5858 46.5658 22.6678 46.5489 22.7703L44.1104 22.7632L44.1037 22.7602ZM45.9016 22.291C45.8097 21.8544 45.461 21.625 45.0286 21.6237C44.5395 21.6223 44.1961 21.8761 44.1018 22.2858L45.9049 22.291L45.9016 22.291Z" fill="#103559"/>
<path d="M47.8154 22.2714C48.2421 22.3636 48.7948 22.5381 48.7811 23.1156C48.7803 23.3736 48.6745 23.5785 48.4697 23.7245C48.2648 23.8705 48.009 23.943 47.6994 23.9421C47.1522 23.9405 46.747 23.7019 46.5707 23.3086L47.0857 23.0198C47.1782 23.2781 47.3822 23.4106 47.6979 23.4115C48.0136 23.4124 48.1702 23.3103 48.1708 23.1109C48.1713 22.938 47.9401 22.8347 47.6457 22.7635C47.2311 22.6596 46.6723 22.4968 46.686 21.9281C46.6867 21.6789 46.7805 21.4798 46.9764 21.3309C47.1692 21.179 47.416 21.1064 47.7016 21.1072C48.1616 21.1086 48.5308 21.3207 48.7252 21.6731L48.2193 21.9472C48.1267 21.7417 47.9496 21.6386 47.7 21.6379C47.4745 21.6372 47.2969 21.7334 47.2963 21.924C47.2958 22.1028 47.527 22.1944 47.8154 22.2773L47.8154 22.2714Z" fill="#103559"/>
<path d="M50.9956 21.6011L50.2721 21.599L50.2681 23.006C50.267 23.3816 50.5113 23.376 50.9905 23.3551L50.9888 23.9249C50.0239 24.0399 49.6344 23.7745 49.6366 23.0074L49.6407 21.6004L49.1013 21.5988L49.1031 20.9876L49.6425 20.9892L49.6443 20.3557L50.2763 20.1698L50.2739 20.991L50.9973 20.9931L50.9956 21.6043L50.9956 21.6011Z" fill="#103559"/>
<path d="M15.1778 2.1474C15.0975 1.33248 14.7707 1.16733 14.1351 1.16549L11.4276 1.15762C10.8333 1.1559 10.69 1.25653 10.4625 1.90951L8.41267 8.5063L6.40119 1.89772C6.17746 1.24343 6.03475 1.14197 5.44049 1.14024L2.72977 1.13237C2.0942 1.13052 1.7664 1.29377 1.68141 2.10821L0.207384 15.0663C0.145648 15.5334 0.186419 15.7198 0.596189 15.781L3.6933 16.2384C4.16345 16.2998 4.26861 16.199 4.33 15.8519L5.02452 9.78164L6.46346 15.4728C6.60511 15.9406 6.78888 16.1274 7.26239 16.1288L9.51867 16.1353C9.98899 16.1367 10.177 15.9541 10.3214 15.484L11.7743 9.80124L12.4526 15.8755C12.512 16.223 12.6166 16.3243 13.0871 16.2657L16.1868 15.8263C16.5969 15.7675 16.6387 15.5845 16.5797 15.1138L15.1778 2.1474Z" fill="#103559"/>
<path d="M22.6307 4.65504C19.1535 4.64494 17.2568 7.02281 17.2472 10.3092C17.2377 13.5956 19.1206 15.9845 22.5978 15.9946C26.0751 16.0047 27.9718 13.6268 27.9813 10.3404C27.9909 7.05397 26.108 4.66514 22.6307 4.65504ZM22.6086 12.2861C21.7739 12.2837 21.3289 11.5003 21.3324 10.318C21.3358 9.13562 21.7853 8.35488 22.62 8.3573C23.4546 8.35972 23.8996 9.14306 23.8962 10.3254C23.8928 11.5078 23.4432 12.2885 22.6086 12.2861Z" fill="#103559"/>
<path d="M35.7959 4.69956C35.0831 4.69749 29.7492 4.82363 29.4008 5.31044C29.2584 5.47369 29.2578 5.69714 29.2567 6.08111L29.395 14.9379C29.4115 15.75 29.5968 16.0149 30.3065 16.0169L32.7919 16.0242C33.5047 16.0262 33.7073 15.7624 33.7097 14.9505L33.7274 8.83536C34.0337 8.73554 34.1347 8.69492 34.4817 8.67389C34.9486 8.65636 35.1721 8.79864 35.3161 9.18303C35.4158 9.58931 35.4362 10.1999 35.4337 11.0308L35.4034 14.9522C35.4011 15.7642 35.6242 16.0292 36.3371 16.0313L38.8824 16.0387C39.5952 16.0408 39.7789 15.7769 39.8002 14.965L39.9799 9.56165C40.0026 8.23986 39.7223 7.02105 39.0531 6.12529C38.3429 5.2294 37.2846 4.69758 35.7991 4.69327L35.7959 4.69956Z" fill="#103559"/>
<path d="M45.3455 5.98094L42.7871 5.97351C42.0871 5.97148 41.885 6.2123 41.8827 7.02431L41.8596 14.9782C41.8572 15.7871 42.0578 16.0511 42.7578 16.0531L45.3565 16.0606C46.0565 16.0627 46.2772 15.8 46.2795 14.9911L46.2624 7.03703C46.2646 6.24696 46.0455 5.98297 45.3455 5.98094Z" fill="#103559"/>
<path d="M44.2692 0.623002C42.7539 0.618602 41.8987 1.54921 41.895 2.82104C41.8913 4.09286 42.7411 5.02842 44.2564 5.03282C45.7717 5.03722 46.6269 4.10661 46.6306 2.83479C46.6343 1.56296 45.7845 0.627402 44.2692 0.623002Z" fill="#103559"/>
<path d="M55.2429 5.07965L53.6691 5.07508L53.6771 2.33668C53.6794 1.52553 53.4718 1.2797 52.7506 1.2776L50.3083 1.27051C49.5839 1.26841 49.3556 1.53184 49.3533 2.32412L49.3454 5.06253L48.105 5.05892C47.4223 5.05694 47.2552 5.17907 47.2534 5.80787L47.247 8.02123C47.2451 8.65002 47.4115 8.77312 48.0942 8.7751L49.3346 8.7787L49.3234 12.6332C49.3158 15.2301 50.6971 16.3911 53.3061 16.3987C54.0722 16.4009 54.8384 16.3434 55.5631 16.2009C55.8742 16.1421 55.9578 16.0606 55.9587 15.7556L55.8651 12.6491C55.8659 12.385 55.722 12.2839 55.4526 12.3429C55.2248 12.402 54.9971 12.4422 54.6862 12.4413C54.0869 12.4395 53.6515 12.2339 53.6541 11.363L53.6616 8.78498L55.2353 8.78955C55.918 8.79153 56.085 8.6694 56.0869 8.0406L56.0933 5.82725C56.0951 5.19845 55.9288 5.07535 55.2461 5.07337L55.2429 5.07965Z" fill="#103559"/>
<path d="M62.0946 4.76962C58.6173 4.75952 56.7206 7.13739 56.7111 10.4238C56.7015 13.7102 58.5844 16.0991 62.0617 16.1091C65.5389 16.1192 67.4357 13.7414 67.4452 10.455C67.4547 7.16855 65.5719 4.77972 62.0946 4.76962ZM62.0724 12.4007C61.2378 12.3983 60.7928 11.6149 60.7962 10.4326C60.7997 9.25019 61.2492 8.46946 62.0838 8.47188C62.9185 8.4743 63.3635 9.25764 63.3601 10.44C63.3566 11.6224 62.9071 12.4031 62.0724 12.4007Z" fill="#103559"/>
<path d="M68.4583 5.23218C68.0942 4.96794 67.4963 5.11827 67.1176 5.5675C66.7389 6.01674 66.7278 6.59571 67.0887 6.85994C67.4527 7.12418 68.0507 6.97386 68.4294 6.52462C68.808 6.07538 68.8192 5.49641 68.4583 5.23218Z" fill="#103559"/>
<path d="M59.8761 4.44165C60.3051 4.37705 60.5876 3.83539 60.5065 3.22997C60.4255 2.62455 60.0157 2.18436 59.5867 2.24896C59.1577 2.31357 58.8752 2.85522 58.9562 3.46065C59.0373 4.06607 59.4471 4.50626 59.8761 4.44165Z" fill="#103559"/>
<path d="M65.4303 5.01421C66.0227 5.3154 66.9224 4.75162 67.4366 3.75379C67.9508 2.75595 67.8883 1.70111 67.2927 1.3999C66.7003 1.09871 65.8006 1.66249 65.2864 2.66033C64.7722 3.65816 64.8347 4.71301 65.4303 5.01421Z" fill="#103559"/>
<path d="M62.3619 4.13531C62.9596 4.21314 63.542 3.43173 63.6604 2.39216C63.7789 1.34943 63.3908 0.444728 62.7902 0.366893C62.1925 0.289067 61.6101 1.07048 61.4917 2.11004C61.3732 3.15277 61.7613 4.05747 62.3619 4.13531Z" fill="#103559"/>
</g>
<defs>
<clipPath id="clip0_53_1649">
<rect width="68.8249" height="23.9391" fill="white" transform="translate(0.228516 0.180153) rotate(0.166359)"/>
</clipPath>
</defs>
</svg>
